PathFileType	4	(X/Y/Z)	12_coords_data.trc
DataRate	CameraRate	NumFrames	NumMarkers	Units	OrigDataRate	OrigDataStartFrame	OrigNumFrames
30.0	30.0	9	21	m	30.0	54	64
Frame#	Time	THUMB_TIP	THUMB_IP	THUMB_MCP	THUMB_CMC	INDEX_TIP	INDEX_DIP	INDEX_PIP	INDEX_MCP	MIDDLE_TIP	MIDDLE_DIP	MIDDLE_PIP	MIDDLE_MCP	RING_TIP	RING_DIP	RING_PIP	RING_MCP	PINKY_TIP	PINKY_DIP	PINKY_PIP	PINKY_MCP	WRIST
X1	Y1	Z1	X2	Y2	Z2	X3	Y3	Z3	X4	Y4	Z4	X5	Y5	Z5	X6	Y6	Z6	X7	Y7	Z7	X8	Y8	Z8	X9	Y9	Z9	X10	Y10	Z10	X11	Y11	Z11	X12	Y12	Z12	X13	Y13	Z13	X14	Y14	Z14	X15	Y15	Z15	X16	Y16	Z16	X17	Y17	Z17	X18	Y18	Z18	X19	Y19	Z19	X20	Y20	Z20	X21	Y21	Z21
52	1.7666666666666588	0.5106571291758574	0.0036839710631410005	-0.1596737768532658	0.49647756625715767	0.0005889678851879188	-0.1418591494150313	0.4744844324116285	-0.00418638560789375	-0.12035756662053101	0.47068564865960083	-0.021258546098824493	-0.07932099051850672	0.5757809722304283	0.03588246888831648	-0.14692311755029552	0.5624024422020999	0.04163610389954564	-0.13615693817046565	0.5418645752515062	0.044026742735153834	-0.12185691369225617	0.5077144527555595	0.026636438884587332	-0.10328320755974689	0.6016028886236654	0.041274201617608974	-0.1198227155945681	0.5861874730216111	0.04178432865021753	-0.11033036434598159	0.5602365497098551	0.04023891844163208	-0.09715573582922403	0.5209423428939735	0.024364229829525574	-0.08300980025820659	0.6052688760465139	0.02519219396854988	-0.10339523997362313	0.590561293811174	0.025491814202179608	-0.09297423942154995	0.5691161200719056	0.024322844202708693	-0.08036797068599874	0.5323634810304816	0.011692384814907197	-0.06921288874349833	0.6038407266794988	-0.01911165115022273	-0.07795477687311725	0.5887618651773089	-0.014988524766217037	-0.07098141580263714	0.5694446143829229	-0.010468954875547998	-0.06410905603686855	0.5342313598606684	-0.007069875203361553	-0.05708364399677815	0.4622830810018609	-0.023011742144276925	-0.051989820119430985
53	1.7999999999999918	0.511571484400286	0.0028674067758037713	-0.15938361317456418	0.49717556648300465	-0.00011973315245128457	-0.14172477565993935	0.474956739927044	-0.004842070176085622	-0.12044466101007553	0.4709140302104876	-0.021507938560077267	-0.07926462544482704	0.5759025770433522	0.034852015633148214	-0.14662709566985246	0.5625277188340356	0.04094305878083837	-0.136043506427367	0.541945671165846	0.043762426889042416	-0.12188581204392979	0.5076443182550899	0.026637099359506755	-0.10334460281966688	0.6012930022715856	0.040379004330151624	-0.1200275468480484	0.5859852127622988	0.04138881654937199	-0.11040196324905138	0.5600807398389445	0.04039156037410574	-0.09708380599348103	0.520734568429252	0.024720395969513254	-0.08285561838566075	0.6049260785976178	0.025022423453000542	-0.10325389099195552	0.5903113434725468	0.025676314604731743	-0.0927190941934546	0.5689064583431901	0.024882698882513488	-0.0800155102233895	0.532154577258629	0.012318429798387043	-0.06878344838559884	0.6035368431079169	-0.018670965094197634	-0.0774871039165673	0.5885870473418339	-0.01431779693892865	-0.07037700310403613	0.569337330917312	-0.0096544538708484	-0.06341182772900923	0.5341096881148778	-0.006339304864559692	-0.05641851516269156	0.4622830810018608	-0.023011742144276925	-0.051989820119431
54	1.8333333333333253	0.5121992409252382	0.0026250301135803955	-0.1590604135503118	0.49761867771441015	-0.0003481355640202466	-0.14155134554802834	0.4752278711855825	-0.005099719937875946	-0.12045882960215938	0.4710725212706679	-0.021587156558208198	-0.07921822460204872	0.5759653556349955	0.03388810327390834	-0.14626387442734326	0.5626795010761833	0.04034625818372284	-0.1357863602277381	0.5421060211425052	0.043609353918349636	-0.12171177452707871	0.5076343467991241	0.02677032337418772	-0.10322429735206468	0.6010167107729882	0.03924625568771967	-0.12022180187475681	0.585874572355587	0.0408007909609619	-0.11040859321333996	0.56006592801449	0.04042261911539369	-0.09687417732901091	0.5206405212943747	0.025010225890165105	-0.08258280367129642	0.6046279734565742	0.02448596256748392	-0.10321280666910976	0.5901475854712976	0.0255114803501294	-0.09252324741377382	0.5688149467423	0.025150058787199114	-0.07967926523097982	0.5320327022233401	0.01275655509089968	-0.06835723412886503	0.6031520435022366	-0.018793200931136678	-0.07742192419523876	0.5883741247571628	-0.014179842167310386	-0.07011918234849229	0.5692397473308315	-0.009294133908249513	-0.06299054472871882	0.534037114136585	-0.005904574288072784	-0.05590754022691338	0.4622830810018608	-0.023011742144276925	-0.051989820119430985
56	1.8666666666666671	0.5127105371313245	0.0030260182515767786	-0.158638901007638	0.49797006921096487	-5.833946494560038e-06	-0.14127438322746638	0.47544092779567315	-0.004898473934688008	-0.12036218915234084	0.4711527023801324	-0.02151869352874536	-0.07918853952747976	0.5759728427102921	0.032912619314939606	-0.14576400166289005	0.5628662005258684	0.0397955562843193	-0.1353313074123606	0.5423694975367128	0.04356848251605272	-0.1212721457295205	0.5076756991151627	0.027082753948786786	-0.10288200710330878	0.6007200326680608	0.03788755301431823	-0.1203647841348511	0.5858246178402605	0.040060430552251725	-0.11029476823054939	0.5601648030339295	0.040394112001077676	-0.09647912091326785	0.5206357080090773	0.025296136160635085	-0.08213862953264839	0.6043126201905619	0.023699673579526848	-0.10326923219326353	0.5900367992526586	0.025140964683780798	-0.09235485559623693	0.5688176401038072	0.025211271617591402	-0.07931942998175187	0.5319940343691298	0.013041883513548402	-0.067889255535567	0.6026319298720568	-0.01939072137171649	-0.0778035404083841	0.5881043821802123	-0.014459740980812708	-0.07021171648750008	0.5691521552202864	-0.00928240120638002	-0.06280764563968043	0.5340120399632595	-0.005713211183007494	-0.05550582166892257	0.462283081001861	-0.023011742144276925	-0.051989820119430985
57	1.9000000000000004	0.5131033434308188	0.003639774627519521	-0.15822205546289733	0.4982272122028957	0.0005249169938810194	-0.14098841447755203	0.4755892366782136	-0.004525687147236557	-0.12023188630076807	0.4711901431374883	-0.0213888341231091	-0.07916885852528525	0.5759403314459894	0.032104690313843665	-0.14525688061775938	0.5630368651750322	0.03937443783658945	-0.134833285789208	0.542640227212618	0.04360525077671995	-0.12075893981165627	0.5077439252660493	0.02742952798923426	-0.10247697611088466	0.6004355398257082	0.0366545000651155	-0.1204168125369918	0.5858027002275278	0.03938943430831454	-0.11010176818520623	0.5603058163207857	0.04036950133995054	-0.09601780817178618	0.5206808872284329	0.025529842719527962	-0.08167216606502303	0.6040321832326856	0.02294011019671338	-0.10331315931486693	0.5899669672166997	0.024748688985001377	-0.09218217817256824	0.5688654979074138	0.02518842925595144	-0.0789642131066675	0.5320000601646805	0.013216137807880224	-0.06746097132362652	0.6021152895168445	-0.020112240462615283	-0.07830979699040307	0.5878466816070304	-0.014887081124235757	-0.0704291537295687	0.5690843775417075	-0.009432279080538786	-0.06274585366875825	0.5340152865589178	-0.0056680967568131235	-0.055204418787081405	0.4622830810018609	-0.023011742144276925	-0.051989820119431
58	1.9333333333333338	0.513394800542357	0.004358767443359279	-0.1578303205804282	0.4984071309908831	0.0011523782071460875	-0.14071048327157162	0.47568584091090216	-0.00405125193953737	-0.12008319041967534	0.4711913943620182	-0.021221374063469467	-0.07915793102564722	0.5758831168880204	0.03150383464666162	-0.14478006402527824	0.5631866334780316	0.03909891252875608	-0.1343342944995422	0.5428989524819409	0.043706055317302095	-0.12022068163370203	0.5078331349997839	0.02777391318389877	-0.10204951256429162	0.6001927935741619	0.03565486628583936	-0.1203738726829661	0.5858096685156372	0.038854325211170715	-0.1098434797113833	0.560470255838699	0.04036699679334654	-0.09552441759571723	0.5207656854005401	0.02570246748610361	-0.08121894355539644	0.6038071410311573	0.0222941657209641	-0.10332757338416204	0.5899382354504971	0.024396220503661747	-0.09200349180174347	0.568946409695275	0.0251160897326268	-0.07862421608309621	0.5320432675137295	0.013288487031752783	-0.06709222815911162	0.6016447530008252	-0.02085823712819046	-0.07886753842226753	0.5876223251628279	-0.01538347868306933	-0.07071900864716527	0.5690403281924145	-0.009689636411348124	-0.06277535912214778	0.5340425395443388	-0.005744148582455311	-0.054999025375665325	0.4622830810018609	-0.023011742144276925	-0.051989820119430985
59	1.9666666666666672	0.5136023990864017	0.005075261002427167	-0.15748561973139363	0.49852716747583414	0.0017847070900992579	-0.14045888643231932	0.4757439067625632	-0.0035454088641801995	-0.1199324913473305	0.47116307455177275	-0.021040427648160276	-0.07915467514777452	0.5758201737677516	0.031147974283001645	-0.1443742892496657	0.5633129593085462	0.038984280421764606	-0.1338784856800942	0.5431278052116498	0.043857288729277744	-0.1197072762356094	0.5079380516520637	0.028079503734286693	-0.10164131821873573	0.6000286970596664	0.03499414178939597	-0.1202374194480402	0.5858496859729028	0.03852089522230362	-0.10953612724452998	0.5606398920732345	0.04040496644973546	-0.09503350275286597	0.5208801272979638	0.02580551223234706	-0.08081503017070961	0.6036605653463947	0.021848817007544485	-0.10329698001935675	0.5899513337579995	0.024145378953738472	-0.09181731223309042	0.5690480908749783	0.025029076436164366	-0.07830977749380559	0.5321158350834098	0.013268237982733466	-0.06680273638766296	0.6012680492712125	-0.02153142045075873	-0.07940667203420958	0.5874549139177601	-0.01587164132253116	-0.07103026517166504	0.5690241005051334	-0.01000044810257994	-0.06286655118090459	0.5340884132268009	-0.005916259123533774	-0.05488528525537624	0.4622830810018609	-0.023011742144276925	-0.051989820119430985
60	2.0000000000000004	0.5137441528592833	0.005681576652053266	-0.15721194927942034	0.49860512378107313	0.0023302025214047006	-0.14025382172931836	0.4757769539175907	-0.0030784202329549037	-0.11979798000659736	0.4711120440086094	-0.020870457314935864	-0.07915844221377172	0.5757718040750774	0.031074322404156196	-0.14408206358060252	0.5634140435740405	0.03904574406516759	-0.13351124563205333	0.5433096200029961	0.04404561963000031	-0.11926964353775844	0.5080539696356199	0.02831034018582612	-0.1012953231893535	0.5999812095855257	0.03477610529499042	-0.12001085842793552	0.5859270807928746	0.03845458039183469	-0.10919650292973448	0.5607961940655626	0.040502070098006215	-0.094579531006585	0.5210145238088216	0.02583082437093087	-0.08049687566749122	0.603614975530054	0.021691266667576703	-0.10320542124776728	0.5900059587561263	0.02405842457158458	-0.0916213275885963	0.56915755679032	0.024962529975208647	-0.07803064298879399	0.5322096383930373	0.013164791077063587	-0.06661199521425687	0.6010357771707924	-0.022035965714641836	-0.07985927829154599	0.5873694417322778	-0.016274855743280803	-0.07131288211655609	0.5690400198199992	-0.010310605479998847	-0.06298990006931927	0.534146863684755	-0.0061591107714763504	-0.054858713341259385	0.4622830810018608	-0.023011742144276925	-0.051989820119431
61	2.033333333333334	0.5138384021876877	0.006070347451939351	-0.15703500407084922	0.49865911674993235	0.0026975091813378205	-0.14011716568648364	0.47579890267344915	-0.0027202008139916023	-0.11969954998866378	0.47104547133553587	-0.020736187109027138	-0.07916907838601851	0.5757563911251175	0.03132100463389886	-0.14394530658781643	0.5634866079041091	0.039299312080699145	-0.1332776437700389	0.5434268301157976	0.04425827058933596	-0.11895898885439862	0.5081765275061938	0.028430914726029877	-0.10105516059596095	0.6000815349638559	0.03510520104584114	-0.11969385936766852	0.5860422334340013	0.03872139136765229	-0.10883931284972201	0.5609192271121506	0.04067730521800905	-0.09419627681335876	0.5211592393048823	0.025770453140042116	-0.0803010599495784	0.6036882110036327	0.021909411903570097	-0.10303352012193104	0.590098599211867	0.02419826706859529	-0.09141097335357423	0.5692603513068502	0.024951892743063198	-0.0777955610721984	0.5323162012308995	0.012987570837802775	-0.06653920240196451	0.6009980192063441	-0.022275773131228194	-0.08015746248228371	0.587390545234524	-0.016516076486721598	-0.07151671328620719	0.5690922090714945	-0.010565753267071099	-0.06311572725798065	0.5342115332995818	-0.006447070094990015	-0.054914607967132545	0.4622830810018608	-0.023011742144276925	-0.051989820119430985
